<?xml version="1.0" standalone="no"?>
<!DOCTYPE svg PUBLIC "-//W3C//DTD SVG 20010904//EN"
 "http://www.w3.org/TR/2001/REC-SVG-20010904/DTD/svg10.dtd">
<svg version="1.0" xmlns="http://www.w3.org/2000/svg"
 width="82.000000pt" height="74.000000pt" viewBox="0 0 82.000000 74.000000"
 preserveAspectRatio="xMidYMid meet">

<g transform="translate(0.000000,74.000000) scale(0.100000,-0.100000)"
fill="#000000" stroke="none">
<path d="M262 340 c-18 -82 -35 -156 -38 -165 -6 -14 0 -16 37 -13 l44 3 30
135 c17 74 34 147 38 163 7 26 6 27 -35 27 l-43 0 -33 -150z"/>
<path d="M400 464 c-14 -35 -15 -34 30 -34 49 0 49 2 11 -148 -30 -122 -29
-127 26 -120 27 3 28 6 57 135 l29 132 40 3 c35 3 42 7 48 31 l7 27 -119 0
c-119 0 -120 0 -129 -26z"/>
</g>
</svg>
